# xmcd
#
# Track frame offsets:
#	150
#	14065
#	31502
#	43777
#	56787
#	74947
#	88230
#	103790
#	118510
#	132102
#	147387
#	162247
#	178360
#	195225
#	211360
#	225335
#	238865
#	250170
#	268970
#
# Disc length: 3760 seconds
#
# Revision: 1
# Processed by: cddbd v1.5.2PL0 Copyright (c) Steve Scherf et al.
# Submitted via: audiograbber 1.83.01
#
DISCID=200eae13
DTITLE=McGuinn Clark Hillman - The Capitol Collection [CD 2)
DYEAR=2007
DGENRE=Country Rock
TTITLE0=Skate Date
TTITLE1=Givin' Herself Away 
TTITLE2=Deeper In
TTITLE3=Painted Fire
TTITLE4=Let Me Down Easy
TTITLE5=Mean Streets
TTITLE6=Entertainment
TTITLE7=Soul Shoes
TTITLE8=Between You and Me
TTITLE9=Angel
TTITLE10=Love Me Tonight
TTITLE11=King For A Night
TTITLE12=A Secret Side Of You
TTITLE13=Ain't No Money
TTITLE14=Turn Your Radio On
TTITLE15=Making Movies
TTITLE16=Surrender To Me
TTITLE17=Little Girl (demo)
TTITLE18=I Love Her (demo)
EXTD=
EXTT0=
EXTT1=
EXTT2=
EXTT3=
EXTT4=
EXTT5=
EXTT6=
EXTT7=
EXTT8=
EXTT9=
EXTT10=
EXTT11=
EXTT12=
EXTT13=
EXTT14=
EXTT15=
EXTT16=
EXTT17=
EXTT18=
PLAYORDER=
